<svg width="32" height="32" viewBox="0 0 32 32" aria-hidden="true" focusable="false"><g fill="#FFF" fill-rule="evenodd"><path d="M16 31.411C7.502 31.411.589 24.498.589 16S7.502.589 16 .589 31.411 7.502 31.411 16 24.498 31.411 16 31.411M16 0C7.177 0 0 7.177 0 16s7.177 16 16 16 16-7.177 16-16S24.823 0 16 0"></path><path d="M14.352 20.748h3.863c1.22-.002 1.879-1.044 2.162-1.661l.172-.444h.711l-1.352 2.662h-9.209l.24-.557h.345l.024-.002.145.002h.27c.436-.017.92-.158 1.244-1 .03-.078.063-.15.096-.216l.918-2.421L12 12.38a2.438 2.438 0 01-.126-.26c-.247-.591-.606-.778-.868-.828h-.338v-.626h3.19v.626h-.154l-.029.001c-.27 0-.547.011-.37.428a.79.79 0 01.022.062l1.404 3.351.765-2.017c.09-.32-.057-.427-.203-.459h-.378l.289-.697h3.319l-.288.697h-.522c-.23.06-.536.248-.791.779l-1.393 3.6.704 1.68a.032.032 0 01.01.016c.04.098.097.146.17-.005a.11.11 0 01.015-.026l2.768-6.297c.027-.075.06-.157.1-.248.295-.66.004-.828-.234-.865h-.411v-.626h2.683v.626h-.441c-.177.03-.44.145-.685.513l-3.687 8.388-1.255-.02-.494-1.178-.58 1.504a.18.18 0 01-.009.041c-.054.164.034.207.17.207"></path></g></svg>